<svg id="bateria" xmlns="http://www.w3.org/2000/svg" width="58.357" height="92.416" viewBox="0 0 58.357 92.416">
  <path id="Caminho_10" data-name="Caminho 10" d="M45.044,16.361a2.86,2.86,0,0,0-2.86-2.861H32.816a2.865,2.865,0,0,0-2.86,2.861v1.066H45.044Z" transform="translate(-8.322 -13.5)"/>
  <path id="Caminho_11" data-name="Caminho 11" d="M73.677,18.688H28.434c-3.618.007-6.55,3.2-6.556,7.152V98.765c.006,3.947,2.938,7.145,6.556,7.152H73.677c3.619-.006,6.552-3.2,6.558-7.152V25.844c0-3.949-2.937-7.15-6.558-7.156ZM59.461,63.478,49.607,81.161a1.364,1.364,0,0,1-1.158.711,1.183,1.183,0,0,1-.362-.059,1.467,1.467,0,0,1-1-1.426V64.209H43.811a1.33,1.33,0,0,1-1.177-.772,1.538,1.538,0,0,1,.019-1.481l9.853-17.683a1.351,1.351,0,0,1,1.539-.67,1.5,1.5,0,0,1,.979,1.443v16.2H58.3A1.36,1.36,0,0,1,59.5,62,1.538,1.538,0,0,1,59.461,63.478Z" transform="translate(-21.878 -13.5)"/>
</svg>
