<svg xmlns="http://www.w3.org/2000/svg" width="112.343" height="100" viewBox="0 0 112.343 100">
  <g id="comunhao-grupos" transform="translate(-114.155 -20.507)">
    <g id="Grupo_18" data-name="Grupo 18" transform="translate(114.155 20.507)">
      <g id="Grupo_17" data-name="Grupo 17">
        <path id="Caminho_49" data-name="Caminho 49" d="M81.1,166.464l-21.008-22.11a7.091,7.091,0,0,0-5.174-2.256,7,7,0,0,0-3.78,1.1V116.829a7.967,7.967,0,0,0-.932-3.755,3.608,3.608,0,0,1,1.239-.223,3.887,3.887,0,0,1,3.78,3.978v19.288a1.771,1.771,0,1,0,3.538,0V116.829a7.526,7.526,0,0,0-7.318-7.7,7.018,7.018,0,0,0-3.814,1.129,7.005,7.005,0,0,0-3.81-1.129,7.526,7.526,0,0,0-7.318,7.7l.031,36.818a13.277,13.277,0,0,0,1.358,5.446q.018.033.037.066l21.959,37.425a9.63,9.63,0,0,1,.886,3.593v7.087a1.771,1.771,0,1,0,3.538,0v-7.087a13.261,13.261,0,0,0-1.355-5.448l-.037-.066-21.96-37.425a9.654,9.654,0,0,1-.888-3.595l-.031-36.816a3.785,3.785,0,1,1,7.56,0V149.8a7.858,7.858,0,0,0,2.143,5.446l17.074,17.969a1.707,1.707,0,0,0,2.5,0,1.931,1.931,0,0,0,0-2.633L52.243,152.614a4.127,4.127,0,0,1,0-5.626,3.648,3.648,0,0,1,5.346,0L78.6,169.1a18.846,18.846,0,0,1,4.366,11.094v27.076a1.771,1.771,0,1,0,3.538,0V180.191A22.583,22.583,0,0,0,81.1,166.464Z" transform="translate(-36.501 -109.128)"/>
      </g>
    </g>
    <g id="Grupo_20" data-name="Grupo 20" transform="translate(198.498 31.507)">
      <g id="Grupo_19" data-name="Grupo 19" transform="translate(-22 -11)">
        <path id="Caminho_50" data-name="Caminho 50" d="M306.183,109.128a7,7,0,0,0-3.81,1.129,7.017,7.017,0,0,0-3.814-1.129,7.526,7.526,0,0,0-7.318,7.7v19.288a1.771,1.771,0,1,0,3.538,0V116.829a3.887,3.887,0,0,1,3.78-3.978,3.609,3.609,0,0,1,1.239.223,7.965,7.965,0,0,0-.932,3.755V143.2a7,7,0,0,0-3.78-1.1,7.092,7.092,0,0,0-5.175,2.256L268.9,166.464a22.582,22.582,0,0,0-5.4,13.726v27.076a1.771,1.771,0,1,0,3.538,0V180.191a18.846,18.846,0,0,1,4.366-11.094l21.008-22.109a3.649,3.649,0,0,1,5.346,0,4.127,4.127,0,0,1,0,5.626l-17.074,17.969a1.931,1.931,0,0,0,0,2.633,1.707,1.707,0,0,0,2.5,0l17.073-17.969A7.858,7.858,0,0,0,302.4,149.8V116.829a3.785,3.785,0,1,1,7.56,0l-.031,36.818a9.653,9.653,0,0,1-.888,3.595l-21.959,37.425c-.013.022-.025.043-.037.066a13.261,13.261,0,0,0-1.355,5.448v7.087a1.771,1.771,0,1,0,3.538,0v-7.087a9.631,9.631,0,0,1,.886-3.593l21.959-37.425c.013-.022.025-.043.037-.066a13.281,13.281,0,0,0,1.358-5.446l.031-36.819A7.526,7.526,0,0,0,306.183,109.128Z" transform="translate(-263.501 -109.128)"/>
      </g>
    </g>
    <g id="Grupo_22" data-name="Grupo 22" transform="translate(145.655 21.507)">
      <g id="Grupo_21" data-name="Grupo 21">
        <path id="Caminho_51" data-name="Caminho 51" d="M173.5,0a25,25,0,1,0,25,25A25.028,25.028,0,0,0,173.5,0Zm0,46.512A21.512,21.512,0,1,1,195.011,25,21.536,21.536,0,0,1,173.5,46.512Z" transform="translate(-148.499)"/>
      </g>
    </g>
    <g id="Grupo_24" data-name="Grupo 24" transform="translate(168.543 46.507)">
      <g id="Grupo_23" data-name="Grupo 23">
        <path id="Caminho_52" data-name="Caminho 52" d="M250.611,130c-1.167,0-2.112,1.581-2.112,3.532V141.2c0,1.95.946,3.532,2.112,3.532s2.112-1.581,2.112-3.532v-7.665C252.724,131.581,251.778,130,250.611,130Z" transform="translate(-248.499 -130)"/>
      </g>
    </g>
    <g id="Grupo_26" data-name="Grupo 26" transform="translate(158.996 31.301)">
      <g id="Grupo_25" data-name="Grupo 25">
        <path id="Caminho_53" data-name="Caminho 53" d="M223.915,65.206h-8.407V55.583a1.641,1.641,0,1,0-3.252,0v9.623h-8.407a1.878,1.878,0,0,0,0,3.722h20.067a1.878,1.878,0,0,0,0-3.722Z" transform="translate(-202.222 -53.722)"/>
      </g>
    </g>
  </g>
</svg>
