<svg xmlns="http://www.w3.org/2000/svg" width="148.999" height="151" viewBox="0 0 148.999 151">
  <g id="cruz" transform="translate(0 0)">
    <path id="Caminho_12" data-name="Caminho 12" d="M180.456,87.972V43.424H200.4a3.281,3.281,0,0,0,3.393-3.157V24.872a3.281,3.281,0,0,0-3.393-3.157h-19.94V3.158A3.281,3.281,0,0,0,177.062,0H160.515a3.281,3.281,0,0,0-3.393,3.157V21.714h-19.94a3.281,3.281,0,0,0-3.394,3.157V40.266a3.281,3.281,0,0,0,3.394,3.157h19.94V87.972c3.252,2.447,7.752,5.607,11.666,12.028,3.921-6.432,8.484-9.633,11.668-12.028Zm0,0" transform="translate(-94.79 0)"/>
    <path id="Caminho_13" data-name="Caminho 13" d="M70,270.259v32.41H42.252V286.43c-.2-2.6-.9-5-3.361-6.577-2.241-1.438-14.439-8.325-27.332-16.507a17.823,17.823,0,0,1-8.092-10.71L.045,238.348c-.4-2.78,2.064-5.32,5.531-5.645s6.583,1.679,6.984,4.473l3.532,12.368a5,5,0,0,0,2.231,2.822l16.9,9.77a6.3,6.3,0,0,0,7.25-.534,3.8,3.8,0,0,0-.585-6.251l-6.479-4.293a4.032,4.032,0,0,1-1.038-6.271,6.608,6.608,0,0,1,8.15-.914c.016.011,18.566,11.895,18.564,11.892,5.49,3.517,8.761,8.831,8.919,14.495Zm0,0" transform="translate(-0.002 -151.669)"/>
    <path id="Caminho_14" data-name="Caminho 14" d="M327.125,238.348,323.7,252.635a17.82,17.82,0,0,1-8.091,10.71c-12.894,8.183-25.091,15.069-27.332,16.507-2.457,1.573-3.163,3.979-3.361,6.578v16.238h-27.75v-32.41c.157-5.664,3.429-10.977,8.919-14.495l18.565-11.892a6.607,6.607,0,0,1,8.149.913,4.032,4.032,0,0,1-1.038,6.272l-6.479,4.293a3.8,3.8,0,0,0-.584,6.25,6.3,6.3,0,0,0,7.249.535l16.9-9.77a5,5,0,0,0,2.232-2.822l3.532-12.368c.4-2.794,3.528-4.795,6.983-4.473s5.933,2.866,5.531,5.645Zm0,0" transform="translate(-178.169 -151.669)"/>
  </g>
</svg>
