<svg id="instagram" xmlns="http://www.w3.org/2000/svg" width="40.634" height="40.634" viewBox="0 0 40.634 40.634">
  <g id="Grupo_12" data-name="Grupo 12">
    <g id="Grupo_11" data-name="Grupo 11">
      <path id="Caminho_44" data-name="Caminho 44" d="M27.936,0H12.7A12.7,12.7,0,0,0,0,12.7V27.936a12.7,12.7,0,0,0,12.7,12.7H27.936a12.7,12.7,0,0,0,12.7-12.7V12.7A12.7,12.7,0,0,0,27.936,0Zm8.889,27.936a8.9,8.9,0,0,1-8.889,8.889H12.7a8.9,8.9,0,0,1-8.889-8.889V12.7A8.9,8.9,0,0,1,12.7,3.809H27.936A8.9,8.9,0,0,1,36.825,12.7Z" fill="#fff"/>
    </g>
  </g>
  <g id="Grupo_14" data-name="Grupo 14" transform="translate(11.739 11.34)">
    <g id="Grupo_13" data-name="Grupo 13">
      <path id="Caminho_45" data-name="Caminho 45" d="M136.578,128a8.986,8.986,0,1,0,8.578,8.977A8.785,8.785,0,0,0,136.578,128Zm0,14.588a5.616,5.616,0,1,1,5.361-5.611A5.5,5.5,0,0,1,136.578,142.588Z" transform="translate(-128 -128)" fill="#fff"/>
    </g>
  </g>
  <g id="Grupo_16" data-name="Grupo 16" transform="translate(27.896 8.665)">
    <g id="Grupo_15" data-name="Grupo 15" transform="translate(0 0)">
      <circle id="Elipse_1" data-name="Elipse 1" cx="2.675" cy="2.675" r="2.675" fill="#fff"/>
    </g>
  </g>
</svg>
