<svg xmlns="http://www.w3.org/2000/svg" width="60" height="44.063" viewBox="0 0 60 44.063">
  <g id="o-email" transform="translate(-0.5)">
    <g id="Grupo_30" data-name="Grupo 30" transform="translate(0.5)">
      <g id="Grupo_29" data-name="Grupo 29">
        <path id="Caminho_75" data-name="Caminho 75" d="M52.969,68H7.031A7.039,7.039,0,0,0,0,75.031v30a7.039,7.039,0,0,0,7.031,7.031H52.969A7.039,7.039,0,0,0,60,105.031v-30A7.039,7.039,0,0,0,52.969,68Zm2.344,37.031a2.346,2.346,0,0,1-2.344,2.344H7.031a2.346,2.346,0,0,1-2.344-2.344v-30a2.346,2.346,0,0,1,2.344-2.344H52.969a2.346,2.346,0,0,1,2.344,2.344Z" transform="translate(0 -68)" fill="#fff"/>
      </g>
    </g>
    <g id="Grupo_32" data-name="Grupo 32" transform="translate(15.5 0.863)">
      <g id="Grupo_31" data-name="Grupo 31">
        <path id="Caminho_76" data-name="Caminho 76" d="M48.008,92.937,34.522,109.031,21.036,92.937,19.522,96.2l15,17.9,15-17.9Z" transform="translate(-19.522 -92.937)" fill="#fff"/>
      </g>
    </g>
  </g>
</svg>
