<svg xmlns="http://www.w3.org/2000/svg" width="105.61" height="50.177" viewBox="0 0 105.61 50.177">
  <g id="oracao" transform="translate(0 -29.823)">
    <path id="Caminho_72" data-name="Caminho 72" d="M76.563,30H43.217c-12.665,0-22.08,13.732-20.3,28.571H8.789C3.943,58.571,0,63.378,0,69.286S3.943,80,8.789,80H41.714C47.9,80,52.93,73.866,52.93,66.327a15.733,15.733,0,0,0-1.975-7.756h8.03V80H91.211C96.057,80,100,75.193,100,69.286s-3.943-10.714-8.789-10.714H76.563ZM91.211,65.714c1.615,0,2.93,1.6,2.93,3.571s-1.315,3.571-2.93,3.571H64.844V51.429H37.067L45.5,61.709a7.27,7.27,0,0,1,1.569,4.618c0,3.6-2.4,6.53-5.357,6.53H8.789c-1.615,0-2.93-1.6-2.93-3.571s1.315-3.571,2.93-3.571H35.352V58.571H28.864c-1.855-11.026,5.054-21.429,14.353-21.429H70.7V65.714Zm0,0"/>
    <path id="Caminho_73" data-name="Caminho 73" d="M405.589,27.177A13.589,13.589,0,1,0,392,13.589,13.6,13.6,0,0,0,405.589,27.177Zm0-20.383a6.794,6.794,0,1,1-6.794,6.794A6.8,6.8,0,0,1,405.589,6.794Zm0,0" transform="translate(-313.567 29.823)"/>
  </g>
</svg>
