<svg id="pin" xmlns="http://www.w3.org/2000/svg" width="30.201" height="45" viewBox="0 0 30.201 45">
  <path id="Caminho_77" data-name="Caminho 77" d="M19.494,34.646l5.793-7.9c2.59-3.531,4.915-7.08,4.915-11.645A15.118,15.118,0,0,0,15.163,0H15.1A15.117,15.117,0,0,0,0,15.1c0,4.564,2.325,8.113,4.915,11.645l5.793,7.9H3.972L.068,45H30.134l-3.9-10.354ZM7.041,25.185c-2.409-3.286-4.4-6.313-4.4-10.085a12.477,12.477,0,0,1,12.4-12.464h.06A12.479,12.479,0,0,1,27.565,15.1c0,3.772-2,6.8-4.4,10.085L15.111,36.192ZM3.881,42.363,5.8,37.283h6.845L15.076,40.6s2.036-2.679,2.5-3.321h6.826l1.915,5.08Zm0,0" transform="translate(0 0)" fill="#fff"/>
  <path id="Caminho_78" data-name="Caminho 78" d="M86,76A10,10,0,1,0,76,86,10.011,10.011,0,0,0,86,76ZM76,83.164A7.164,7.164,0,1,1,83.164,76,7.172,7.172,0,0,1,76,83.164Zm0,0" transform="translate(-60.999 -60.94)" fill="#fff"/>
</svg>
