<svg id="placa-de-telefone" xmlns="http://www.w3.org/2000/svg" width="47.787" height="45" viewBox="0 0 47.787 45">
  <path id="Caminho_79" data-name="Caminho 79" d="M30.727,32.615a5.471,5.471,0,0,1,.351-7.73l6.141-5.607a5.472,5.472,0,0,1,7.73.351l.615.674a2.861,2.861,0,0,1,.243.311L31.63,33.557a2.792,2.792,0,0,1-.288-.269ZM2.042,60.04a2.776,2.776,0,0,0,.288.269L16.507,47.365a2.833,2.833,0,0,0-.243-.311l-.615-.673a5.471,5.471,0,0,0-7.73-.351L1.779,51.637a5.478,5.478,0,0,0-.351,7.73ZM46.221,23.506,34.47,34.234a7.672,7.672,0,0,0,2.4,1.359,29.225,29.225,0,0,1-7.217,10.519,33.114,33.114,0,0,1-11.606,6.611,7.68,7.68,0,0,0-1.124-2.467L5.173,60.984a7.737,7.737,0,0,0,3.766,1.7l.009,0s.056.01.179.027l.03,0a16.669,16.669,0,0,0,2.189.127h0c4.708,0,14.163-1.423,24.6-10.953C49.6,39.426,47.836,28.615,47.57,27.343A7.725,7.725,0,0,0,46.221,23.506Z" transform="translate(0.001 -17.847)" fill="#fff"/>
</svg>
