<svg width="30" height="20" viewBox="0 0 30 20" fill="none" xmlns="http://www.w3.org/2000/svg">
<path d="M29.8169 9.55811L20.4419 0.18312C20.1977 -0.06104 19.8022 -0.06104 19.5581 0.18312C19.314 0.42728 19.314 0.822788 19.5581 1.06689L27.8662 9.37501H0.625019C0.279551 9.37501 0 9.65456 0 10C0 10.3455 0.279551 10.625 0.625019 10.625H27.8662L19.5581 18.9331C19.314 19.1773 19.314 19.5728 19.5581 19.8169C19.6802 19.9389 19.8401 20 20 20C20.1599 20 20.3198 19.9389 20.4419 19.8169L29.8169 10.4419C30.061 10.1978 30.061 9.80227 29.8169 9.55811Z" fill="black"/>
</svg>
