<svg width="30" height="20" viewBox="0 0 30 20" fill="none" xmlns="http://www.w3.org/2000/svg">
<path d="M0.183126 10.4419L9.55812 19.8169C9.80228 20.061 10.1978 20.061 10.4419 19.8169C10.686 19.5727 10.686 19.1772 10.4419 18.9331L2.13377 10.625H29.375C29.7204 10.625 30 10.3454 30 9.99997C30 9.6545 29.7204 9.37495 29.375 9.37495H2.13377L10.4419 1.06689C10.686 0.822733 10.686 0.427227 10.4419 0.183126C10.3198 0.0610752 10.1599 2.05437e-05 9.99997 2.05437e-05C9.84007 2.05437e-05 9.68017 0.0610752 9.55806 0.183126L0.183067 9.55812C-0.0610341 9.80222 -0.0610337 10.1977 0.183126 10.4419Z" fill="black"/>
</svg>
