<svg xmlns="http://www.w3.org/2000/svg" width="110.098" height="76.703" viewBox="0 0 110.098 76.703">
  <g id="usuarios-com-perfil-de-grupo" transform="translate(-63.884 -430.656)">
    <g id="Grupo_28" data-name="Grupo 28" transform="translate(-1 9)">
      <path id="Caminho_66" data-name="Caminho 66" d="M45.429,36.039a8.886,8.886,0,0,0,8.884-8.884,8.887,8.887,0,0,0-8.884-8.884,8.886,8.886,0,0,0-8.884,8.884,8.886,8.886,0,0,0,8.884,8.884Z" transform="translate(39.455 403.416)"/>
      <path id="Caminho_67" data-name="Caminho 67" d="M168.548,115.247a13.987,13.987,0,1,0-4.1-9.893A13.482,13.482,0,0,0,168.548,115.247Z" transform="translate(-58.449 341.014)"/>
      <path id="Caminho_68" data-name="Caminho 68" d="M374.352,36.07a8.9,8.9,0,0,0,8.9-8.9,8.9,8.9,0,1,0-15.191,6.292A8.575,8.575,0,0,0,374.352,36.07Z" transform="translate(-219.452 403.385)"/>
      <path id="Caminho_69" data-name="Caminho 69" d="M410.5,164.456a18.448,18.448,0,0,0-2.933.82,64.4,64.4,0,0,1-6.576,1.661,39.447,39.447,0,0,1-8.026.839,45.219,45.219,0,0,1-8.971-.9,11.561,11.561,0,0,1,.336,2.578q0,5.429-5.466,10,10.93.2,17.877,5h9.038a24.138,24.138,0,0,0,9.308-1.583q3.777-1.581,3.777-4.628Q418.861,164.455,410.5,164.456Z" transform="translate(-243.878 275.903)"/>
      <path id="Caminho_70" data-name="Caminho 70" d="M142.221,309.691a39.61,39.61,0,0,0-1.318-5.216,24.37,24.37,0,0,0-2.137-4.687,17.03,17.03,0,0,0-3.083-3.894,13.065,13.065,0,0,0-4.251-2.572,15.383,15.383,0,0,0-5.543-.961,5.945,5.945,0,0,0-2.138,1.034q-1.641,1.033-3.629,2.307a22.193,22.193,0,0,1-5.32,2.307,22.3,22.3,0,0,1-13.423,0,22.205,22.205,0,0,1-5.32-2.307q-1.989-1.272-3.629-2.307a5.946,5.946,0,0,0-2.138-1.034,15.385,15.385,0,0,0-5.543.961,13.044,13.044,0,0,0-4.251,2.572,16.989,16.989,0,0,0-3.083,3.894,24.321,24.321,0,0,0-2.137,4.687,39.723,39.723,0,0,0-1.317,5.216,47.354,47.354,0,0,0-.7,5.241q-.174,2.428-.174,4.977a11.771,11.771,0,0,0,3.629,9.11q3.63,3.34,9.645,3.341h43.452q6.015,0,9.645-3.341a11.772,11.772,0,0,0,3.629-9.11q0-2.548-.173-4.977A48.15,48.15,0,0,0,142.221,309.691Z" transform="translate(11.91 166)"/>
      <path id="Caminho_71" data-name="Caminho 71" d="M40,179.455q-5.464-4.57-5.463-10a11.507,11.507,0,0,1,.337-2.578,45.255,45.255,0,0,1-8.972.9,39.444,39.444,0,0,1-8.027-.84,64.47,64.47,0,0,1-6.576-1.661,18.4,18.4,0,0,0-2.935-.82Q0,164.455,0,178.244q0,3.046,3.777,4.629a24.145,24.145,0,0,0,9.308,1.582h9.039Q29.073,179.65,40,179.455Z" transform="translate(64.884 274.904)"/>
    </g>
  </g>
</svg>
