<svg xmlns="http://www.w3.org/2000/svg" width="80" height="90" viewBox="0 0 80 90">
  <g id="vigilia" transform="translate(-19 -1243.336)">
    <path id="Caminho_54" data-name="Caminho 54" d="M0,212.336H20v40H0Zm0,0" transform="translate(19 1081)"/>
    <path id="Caminho_55" data-name="Caminho 55" d="M8.475,30l-7.2,11.647a8.476,8.476,0,1,0,14.4.006Zm0,0" transform="translate(20.049 1233.336)"/>
    <path id="Caminho_62" data-name="Caminho 62" d="M8.475,30l-7.2,11.647a8.476,8.476,0,1,0,14.4.006Zm0,0" transform="translate(50 1213.336)"/>
    <path id="Caminho_64" data-name="Caminho 64" d="M8.475,30l-7.2,11.647a8.476,8.476,0,1,0,14.4.006Zm0,0" transform="translate(79.951 1223.336)"/>
    <path id="Caminho_56" data-name="Caminho 56" d="M135,182.336h20v60H135Zm0,0" transform="translate(-86 1091)"/>
    <path id="Caminho_63" data-name="Caminho 63" d="M135,182.336h20v50H135Zm0,0" transform="translate(-56 1101)"/>
  </g>
</svg>
